<?xml version="1.0" encoding="UTF-8" standalone="no"?>
<!-- Created with Inkscape (http://www.inkscape.org/) -->

<svg
   width="124mm"
   height="124mm"
   viewBox="0 0 124 124"
   version="1.1"
   id="svg5312"
   inkscape:version="1.1.2 (08b2f3d93c, 2022-04-05)"
   sodipodi:docname="launchlogo.svg"
   inkscape:export-filename="/home/jfa/ownCloud/IT/Projects/quadrix/icon_white_android.png"
   inkscape:export-xdpi="40.970001"
   inkscape:export-ydpi="40.970001"
   xmlns:inkscape="http://www.inkscape.org/namespaces/inkscape"
   xmlns:sodipodi="http://sodipodi.sourceforge.net/DTD/sodipodi-0.dtd"
   xmlns="http://www.w3.org/2000/svg"
   xmlns:svg="http://www.w3.org/2000/svg">
  <sodipodi:namedview
     id="namedview5314"
     pagecolor="#ffffff"
     bordercolor="#111111"
     borderopacity="1"
     inkscape:pageshadow="0"
     inkscape:pageopacity="0"
     inkscape:pagecheckerboard="1"
     inkscape:document-units="mm"
     showgrid="false"
     inkscape:zoom="0.60647144"
     inkscape:cx="182.20149"
     inkscape:cy="280.30998"
     inkscape:window-width="1920"
     inkscape:window-height="1031"
     inkscape:window-x="0"
     inkscape:window-y="25"
     inkscape:window-maximized="1"
     inkscape:current-layer="layer1" />
  <defs
     id="defs5309" />
  <g
     inkscape:label="Layer 1"
     inkscape:groupmode="layer"
     id="layer1">
    <path
       id="rect18614-4-9-5-6-5-7-1-6-0-3-6"
       style="color:#000000;fill:#a9a9a9;fill-opacity:1;stroke-width:0.726832;-inkscape-stroke:none;opacity:1"
       d="m 25.812562,9.026581 c -7.426919,0 -13.727453,6.300597 -13.727453,13.727458 V 81.61895 l -3.031106,11.31272 -3.054002,11.39647 11.396867,-3.05363 11.274767,-3.02096 h 58.912983 c 7.42686,0 13.727462,-6.29907 13.727462,-13.72596 V 22.754039 c 0,-7.426861 -6.300602,-13.727458 -13.727462,-13.727458 z m 6.863697,20.5912 H 80.720898 V 77.66387 H 32.676259 Z" />
    <path
       id="rect18614-4-9-5-6-5-7-1-6-4-5-1"
       style="color:#000000;fill:#ffffff;fill-opacity:1;stroke-width:0.726832;-inkscape-stroke:none"
       d="m 98.187448,19.671865 c 7.426872,0 13.727442,6.300598 13.727442,13.727459 V 92.26422 l 3.0311,11.31273 L 118,114.97342 106.60314,111.9198 95.328358,108.89884 H 36.415409 c -7.426912,0 -13.727453,-6.29908 -13.727453,-13.72597 V 33.399324 c 0,-7.426861 6.300541,-13.727459 13.727453,-13.727459 z m -6.86374,20.591205 h -48.0446 v 48.04607 h 48.04461 z" />
  </g>
</svg>
